<?xml version="1.0" standalone="no"?>
<!DOCTYPE svg PUBLIC "-//W3C//DTD SVG 20010904//EN"
 "http://www.w3.org/TR/2001/REC-SVG-20010904/DTD/svg10.dtd">
<svg version="1.0" xmlns="http://www.w3.org/2000/svg"
 width="588.000000pt" height="510.000000pt" viewBox="0 0 588.000000 510.000000"
 preserveAspectRatio="xMidYMid meet">
<metadata>
Created by potrace 1.16, written by Peter Selinger 2001-2019
</metadata>
<g transform="translate(0.000000,510.000000) scale(0.100000,-0.100000)"
fill="#000000" stroke="none">
<path d="M3520 4783 c0 -4 18 -55 41 -114 38 -103 39 -109 25 -138 -21 -39
-20 -43 5 -39 18 2 31 26 69 128 66 176 65 170 41 170 -15 0 -25 -16 -46 -80
-15 -44 -30 -80 -34 -80 -4 0 -20 36 -35 80 -22 62 -33 80 -47 80 -11 0 -19
-3 -19 -7z"/>
<path d="M910 4095 c0 -8 -6 -15 -12 -15 -10 0 -10 -2 -1 -8 6 -4 13 -28 15
-52 2 -38 7 -46 26 -48 12 -2 22 1 22 7 0 6 -7 11 -15 11 -23 0 -21 77 3 83
16 4 16 5 0 6 -10 0 -18 8 -18 16 0 8 -4 15 -10 15 -5 0 -10 -7 -10 -15z"/>
<path d="M1251 4098 c0 -10 -6 -18 -13 -18 -9 0 -9 -3 0 -12 7 -7 12 -29 12
-50 0 -26 5 -41 15 -45 23 -8 33 7 12 18 -23 13 -23 65 1 78 15 9 15 10 0 11
-9 0 -19 8 -21 18 -4 16 -5 16 -6 0z"/>
<path d="M668 4069 c-21 -12 -24 -69 -6 -87 30 -30 88 -2 88 43 0 44 -43 67
-82 44z m57 -44 c0 -35 -31 -47 -51 -20 -18 25 0 57 29 53 17 -2 22 -10 22
-33z"/>
<path d="M780 4036 c0 -51 13 -65 58 -64 32 1 32 1 32 55 0 63 -17 72 -22 11
-2 -35 -7 -43 -23 -43 -16 0 -21 8 -23 43 -4 55 -22 54 -22 -2z"/>
<path d="M992 4000 c0 -41 3 -63 5 -47 4 23 8 26 29 21 33 -8 54 12 54 51 0
40 -17 55 -58 52 l-32 -2 2 -75z m63 25 c0 -23 -5 -30 -19 -30 -28 0 -43 29
-26 50 21 25 45 14 45 -20z"/>
<path d="M1110 4036 c0 -51 14 -66 58 -63 l32 2 -2 55 c-1 42 -2 46 -5 18 -8
-72 -63 -79 -63 -8 0 22 -4 40 -10 40 -5 0 -10 -20 -10 -44z"/>
<path d="M1330 4065 c0 -8 5 -15 10 -15 6 0 10 7 10 15 0 8 -4 15 -10 15 -5 0
-10 -7 -10 -15z"/>
<path d="M1330 3985 c0 -8 5 -15 10 -15 6 0 10 7 10 15 0 8 -4 15 -10 15 -5 0
-10 -7 -10 -15z"/>
<path d="M3215 3554 c-203 -117 -373 -214 -376 -214 -4 0 -28 43 -54 95 -44
90 -81 135 -111 135 -26 0 -68 -57 -134 -180 -58 -109 -72 -129 -112 -153 -25
-16 -67 -31 -93 -35 -51 -7 -76 -32 -33 -32 48 0 130 32 166 65 23 20 62 80
101 154 69 132 89 156 120 146 23 -7 128 -203 114 -215 -4 -4 -143 -85 -308
-180 -165 -94 -302 -174 -304 -176 -3 -2 0 -9 5 -14 7 -7 107 45 306 160 162
93 302 172 310 175 9 4 25 -7 42 -30 50 -65 116 -94 249 -109 37 -4 47 -3 47
9 0 11 -11 15 -39 15 -50 0 -60 14 -22 30 45 18 86 68 141 170 61 111 96 160
115 160 19 0 54 -39 61 -67 4 -16 -28 -83 -119 -245 -161 -289 -149 -265 -133
-271 10 -4 49 58 132 206 65 117 124 222 132 235 15 22 16 21 54 -50 21 -40
56 -90 77 -110 28 -26 35 -38 25 -42 -8 -3 -14 -11 -14 -17 0 -8 14 -10 44 -6
23 4 58 2 77 -2 19 -5 58 -12 87 -15 43 -6 52 -4 52 9 0 11 -11 15 -42 16 -41
1 -107 16 -81 18 23 2 83 63 114 117 l31 55 27 -38 c15 -21 78 -114 141 -208
133 -201 118 -181 131 -168 8 8 -29 70 -136 229 l-148 218 27 52 c63 120 85
113 170 -56 76 -149 102 -182 165 -215 39 -20 42 -24 21 -25 -14 0 -32 -4 -40
-10 -29 -18 1 -23 74 -10 42 7 93 10 116 6 32 -5 40 -3 40 9 0 11 -11 15 -36
15 l-36 0 35 39 c20 22 43 54 52 70 8 17 20 31 25 31 5 0 171 -81 369 -180
198 -99 362 -180 365 -180 3 0 6 6 6 13 0 7 -60 43 -132 80 l-133 68 58 -6
c46 -4 57 -2 57 10 0 11 -11 15 -38 15 -59 0 -153 28 -196 58 -31 21 -54 55
-110 161 -42 79 -83 142 -99 155 -26 19 -30 19 -54 6 -14 -8 -43 -44 -65 -80
-21 -36 -43 -66 -47 -68 -5 -2 -195 90 -422 203 -227 114 -420 208 -428 210
-9 1 -182 -94 -386 -211z m305 84 c-23 -40 -51 -92 -62 -115 l-22 -42 -36 39
c-20 22 -45 40 -54 40 -29 0 -69 -51 -127 -161 -29 -57 -64 -115 -77 -130 -30
-36 -99 -69 -145 -69 -45 0 -105 37 -130 79 l-17 30 42 25 c274 159 655 376
661 376 4 0 -11 -33 -33 -72z m196 -89 l109 -160 -34 -66 c-26 -49 -46 -73
-80 -94 -56 -36 -78 -36 -127 -1 -28 21 -52 54 -88 123 l-48 94 73 132 c41 73
77 133 80 133 3 0 55 -72 115 -161z m223 15 c2 -2 -7 -14 -21 -27 -13 -12 -35
-42 -48 -65 -13 -23 -26 -42 -30 -42 -7 0 -190 265 -190 274 0 5 278 -130 289
-140z m499 -249 c9 -8 -54 -99 -85 -122 -32 -24 -36 -25 -75 -13 -49 14 -103
49 -124 79 -9 12 -44 77 -79 146 l-63 124 212 -106 c116 -58 213 -107 214
-108z m177 149 c9 -9 36 -57 61 -107 26 -50 57 -108 70 -129 13 -21 22 -38 19
-38 -11 0 -285 141 -285 146 0 9 38 72 67 112 27 36 44 40 68 16z"/>
<path d="M1130 3490 c0 -83 17 -112 22 -37 2 34 7 42 23 42 16 0 21 -8 23 -42
4 -56 22 -55 22 1 0 48 -18 71 -50 63 -17 -4 -20 0 -20 24 0 16 -4 29 -10 29
-6 0 -10 -33 -10 -80z"/>
<path d="M960 3550 c0 -5 5 -10 10 -10 6 0 10 5 10 10 0 6 -4 10 -10 10 -5 0
-10 -4 -10 -10z"/>
<path d="M1260 3535 c0 -8 -5 -15 -12 -15 -9 0 -9 -3 0 -12 7 -7 12 -29 12
-50 0 -41 21 -61 43 -39 8 8 7 11 -6 11 -25 0 -24 77 1 83 16 4 16 5 0 6 -10
0 -18 8 -18 16 0 8 -4 15 -10 15 -5 0 -10 -7 -10 -15z"/>
<path d="M660 3517 c0 -2 7 -27 15 -55 19 -61 40 -67 50 -14 l8 37 15 -37 c8
-21 21 -38 28 -38 8 0 14 3 14 8 0 4 7 28 15 55 18 58 2 63 -18 5 l-14 -43
-13 43 c-7 23 -17 42 -21 42 -4 0 -14 -19 -22 -42 l-14 -43 -12 43 c-6 23 -16
42 -21 42 -6 0 -10 -1 -10 -3z"/>
<path d="M843 3494 c-15 -24 -15 -29 -2 -53 16 -28 55 -40 73 -21 8 9 6 11
-10 6 -14 -4 -28 -1 -40 11 -17 17 -16 18 24 21 32 2 42 7 42 21 0 45 -60 56
-87 15z m67 -10 c0 -8 -10 -14 -25 -14 -26 0 -35 25 -12 33 18 6 37 -3 37 -19z"/>
<path d="M960 3465 c0 -30 5 -55 10 -55 6 0 10 25 10 55 0 30 -4 55 -10 55 -5
0 -10 -25 -10 -55z"/>
<path d="M1022 3507 c-6 -6 -10 -39 -9 -72 2 -65 11 -74 63 -61 19 5 25 12 22
29 -2 16 -12 24 -38 28 -19 4 -25 7 -14 8 26 1 40 17 46 54 5 25 3 27 -27 27
-18 0 -37 -6 -43 -13z m48 -26 c0 -23 -9 -31 -26 -24 -17 6 -18 40 -1 46 17 6
27 -1 27 -22z m0 -71 c13 -9 13 -11 0 -20 -8 -5 -17 -10 -20 -10 -3 0 -12 5
-20 10 -13 9 -13 11 0 20 8 5 17 10 20 10 3 0 12 -5 20 -10z"/>
<path d="M1337 3513 c-16 -15 -6 -44 18 -53 39 -15 31 -36 -12 -31 -7 1 -13
-3 -13 -9 0 -14 43 -13 58 2 19 19 14 34 -14 47 -27 12 -28 38 0 33 9 -2 16 2
16 8 0 11 -43 14 -53 3z"/>
<path d="M1430 3505 c0 -8 5 -15 10 -15 6 0 10 7 10 15 0 8 -4 15 -10 15 -5 0
-10 -7 -10 -15z"/>
<path d="M1430 3425 c0 -8 5 -15 10 -15 6 0 10 7 10 15 0 8 -4 15 -10 15 -5 0
-10 -7 -10 -15z"/>
<path d="M241 3259 c-20 -59 -7 -179 21 -179 5 0 6 9 1 23 -4 12 -8 49 -8 82
0 33 4 70 8 83 5 13 4 22 -1 22 -6 0 -15 -14 -21 -31z"/>
<path d="M1936 3238 c12 -44 12 -61 1 -105 -15 -56 -8 -71 11 -28 23 49 9 185
-18 185 -4 0 -1 -23 6 -52z"/>
<path d="M610 3200 c0 -83 17 -112 22 -37 2 35 7 43 26 45 20 3 22 -1 22 -42
0 -25 5 -46 10 -46 6 0 10 20 10 44 0 49 -18 71 -50 61 -17 -5 -20 -2 -20 24
0 17 -4 31 -10 31 -6 0 -10 -33 -10 -80z"/>
<path d="M870 3249 c0 -26 -3 -29 -20 -24 -33 11 -60 -12 -60 -50 0 -39 12
-50 57 -50 l33 0 0 78 c0 42 -2 77 -5 77 -3 0 -5 -14 -5 -31z m-5 -74 c0 -25
-4 -30 -27 -33 -26 -3 -28 -1 -28 33 0 34 2 36 28 33 23 -3 27 -8 27 -33z"/>
<path d="M1286 3269 c-4 -9 -6 -44 -4 -79 3 -62 3 -63 35 -66 19 -2 38 2 47
12 35 35 6 101 -40 90 -20 -5 -23 -2 -26 26 -3 24 -6 29 -12 17z m69 -94 c0
-25 -4 -30 -25 -30 -16 0 -26 6 -28 18 -6 30 6 49 30 45 18 -2 23 -9 23 -33z"/>
<path d="M920 3260 c0 -5 5 -10 10 -10 6 0 10 5 10 10 0 6 -4 10 -10 10 -5 0
-10 -4 -10 -10z"/>
<path d="M1230 3260 c0 -5 5 -10 10 -10 6 0 10 5 10 10 0 6 -4 10 -10 10 -5 0
-10 -4 -10 -10z"/>
<path d="M541 3248 c0 -10 -6 -18 -12 -18 -8 0 -8 -4 -1 -13 6 -7 12 -30 14
-52 2 -28 8 -41 21 -43 9 -2 17 1 17 7 0 6 -7 11 -15 11 -22 0 -20 66 3 79 15
9 15 10 0 11 -9 0 -19 8 -21 18 -4 16 -5 16 -6 0z"/>
<path d="M1070 3246 c0 -8 -6 -17 -12 -19 -10 -4 -10 -6 0 -6 7 -1 12 -16 12
-40 0 -44 23 -72 42 -53 9 9 8 12 -5 12 -25 0 -24 77 1 83 16 4 16 5 0 6 -10
0 -18 8 -18 16 0 8 -4 15 -10 15 -5 0 -10 -6 -10 -14z"/>
<path d="M1540 3246 c0 -8 -6 -17 -12 -19 -10 -4 -10 -6 0 -6 7 -1 12 -16 12
-40 0 -44 23 -72 42 -53 9 9 8 12 -5 12 -25 0 -24 77 1 83 16 4 16 5 0 6 -10
0 -18 8 -18 16 0 8 -4 15 -10 15 -5 0 -10 -6 -10 -14z"/>
<path d="M309 3178 c21 -63 38 -71 47 -24 8 46 21 46 30 1 3 -20 12 -35 20
-35 8 0 14 3 14 8 0 4 7 28 15 55 8 26 10 47 5 47 -5 0 -12 -16 -16 -35 -9
-50 -21 -52 -35 -5 -7 22 -15 40 -19 40 -4 0 -13 -21 -20 -47 l-13 -48 -14 48
c-8 26 -18 47 -23 47 -5 0 -1 -23 9 -52z"/>
<path d="M483 3175 c0 -33 2 -45 4 -27 2 18 2 45 0 60 -2 15 -4 0 -4 -33z"/>
<path d="M920 3175 c0 -35 4 -54 10 -50 6 3 10 26 10 50 0 24 -4 47 -10 50 -6
4 -10 -15 -10 -50z"/>
<path d="M983 3223 c-22 -8 -14 -39 13 -52 30 -13 27 -36 -5 -35 -11 0 -21 -3
-21 -8 0 -14 47 -8 61 8 11 14 8 20 -21 44 -29 24 -32 30 -18 35 9 4 22 4 28
0 5 -3 10 -1 10 4 0 11 -25 13 -47 4z"/>
<path d="M1152 3175 l1 -60 7 45 c4 25 4 52 -1 60 -5 9 -8 -8 -7 -45z"/>
<path d="M1175 3220 c-3 -5 3 -10 15 -10 12 0 18 5 15 10 -3 6 -10 10 -15 10
-5 0 -12 -4 -15 -10z"/>
<path d="M1230 3175 c0 -35 4 -54 10 -50 6 3 10 26 10 50 0 24 -4 47 -10 50
-6 4 -10 -15 -10 -50z"/>
<path d="M1410 3186 c0 -50 10 -61 57 -61 l33 0 0 53 c0 62 -18 70 -22 10 -2
-36 -7 -44 -25 -46 -21 -3 -23 1 -23 42 0 25 -4 46 -10 46 -5 0 -10 -20 -10
-44z"/>
<path d="M1623 3175 c0 -33 2 -45 4 -27 2 18 2 45 0 60 -2 15 -4 0 -4 -33z"/>
<path d="M1688 3218 c-29 -23 -27 -72 3 -89 48 -25 95 30 65 76 -18 27 -43 32
-68 13z m57 -43 c0 -24 -5 -31 -24 -33 -31 -5 -45 11 -37 43 5 21 12 26 34 23
23 -2 27 -8 27 -33z"/>
<path d="M1801 3176 c-1 -64 15 -68 21 -6 2 27 8 36 26 38 20 3 22 -1 22 -42
0 -25 5 -46 10 -46 15 0 12 73 -4 95 -12 16 -18 17 -39 8 -20 -9 -27 -9 -31 0
-2 7 -5 -15 -5 -47z"/>
<path d="M460 2680 c0 -83 17 -112 22 -37 2 35 7 43 25 45 23 3 25 -2 37 -68
2 -14 3 0 2 30 l-1 55 -32 -1 c-30 -2 -33 1 -33 27 0 16 -4 29 -10 29 -6 0
-10 -33 -10 -80z"/>
<path d="M720 2730 c0 -27 -2 -30 -25 -24 -34 8 -55 -11 -55 -51 0 -40 17 -55
58 -52 l32 2 0 78 c0 42 -2 77 -5 77 -3 0 -5 -14 -5 -30z m-6 -62 c13 -22 -14
-54 -38 -45 -16 6 -22 48 -9 61 11 11 35 3 47 -16z"/>
<path d="M840 2731 c0 -24 -3 -28 -23 -24 -30 6 -50 -19 -49 -59 1 -37 15 -48
59 -46 l33 1 0 79 c0 45 -4 78 -10 78 -5 0 -10 -13 -10 -29z m-5 -76 c0 -23
-5 -31 -21 -33 -24 -3 -38 20 -28 50 4 13 13 18 27 16 17 -2 22 -10 22 -33z"/>
<path d="M1200 2680 c0 -47 4 -80 10 -80 6 0 10 33 10 80 0 47 -4 80 -10 80
-6 0 -10 -33 -10 -80z"/>
<path d="M590 2740 c0 -5 5 -10 10 -10 6 0 10 5 10 10 0 6 -4 10 -10 10 -5 0
-10 -4 -10 -10z"/>
<path d="M590 2655 c0 -30 5 -55 10 -55 6 0 10 25 10 55 0 30 -4 55 -10 55 -5
0 -10 -25 -10 -55z"/>
<path d="M906 2694 c-20 -20 -20 -58 0 -78 18 -19 60 -21 70 -4 5 7 1 9 -13 6
-22 -6 -53 7 -53 22 0 6 18 10 40 10 28 0 40 4 40 14 0 20 -28 46 -50 46 -10
0 -26 -7 -34 -16z m58 -25 c-7 -12 -41 -12 -49 0 -9 15 28 31 42 19 7 -6 10
-14 7 -19z"/>
<path d="M1020 2653 c0 -63 18 -71 22 -10 2 34 7 42 23 42 16 0 21 -8 23 -42
4 -56 22 -55 22 1 0 51 -14 66 -58 63 -32 -2 -32 -3 -32 -54z"/>
<path d="M1263 2703 c-7 -2 -13 -9 -13 -14 0 -6 8 -5 20 1 23 12 40 6 40 -15
0 -7 -12 -15 -27 -17 -22 -2 -28 -8 -28 -28 0 -22 4 -25 38 -25 l37 -1 0 47
c0 54 -22 71 -67 52z m47 -67 c0 -15 -24 -28 -34 -19 -13 14 -5 33 14 33 11 0
20 -6 20 -14z"/>
<path d="M1371 2655 c11 -30 18 -64 14 -75 -3 -11 -2 -20 4 -20 8 0 34 60 55
128 13 41 -12 23 -27 -20 -10 -28 -17 -38 -21 -28 -3 8 -10 27 -15 43 -6 15
-15 27 -21 27 -5 0 0 -25 11 -55z"/>
<path d="M1473 2684 c-15 -24 -15 -29 -2 -53 16 -28 55 -40 73 -21 8 9 6 11
-10 6 -14 -4 -28 -1 -40 11 -17 17 -16 18 24 21 32 2 42 7 42 21 0 45 -60 56
-87 15z m67 -10 c0 -8 -10 -14 -25 -14 -26 0 -35 25 -12 33 18 6 37 -3 37 -19z"/>
<path d="M1590 2653 c0 -29 5 -53 10 -53 6 0 10 18 10 41 0 32 4 42 20 46 30
8 24 22 -10 21 -29 -1 -30 -2 -30 -55z"/>
<path d="M1680 2695 c0 -8 5 -15 10 -15 6 0 10 7 10 15 0 8 -4 15 -10 15 -5 0
-10 -7 -10 -15z"/>
<path d="M1680 2615 c0 -8 5 -15 10 -15 6 0 10 7 10 15 0 8 -4 15 -10 15 -5 0
-10 -7 -10 -15z"/>
<path d="M2153 2358 c-7 -9 12 -68 67 -198 l77 -185 -24 -36 c-13 -19 -49 -84
-81 -144 -49 -94 -64 -114 -104 -138 -25 -16 -67 -31 -93 -35 -51 -7 -76 -32
-33 -32 52 0 131 32 169 68 22 22 65 87 101 156 35 65 68 119 73 118 6 0 66
-133 134 -295 67 -163 129 -298 136 -301 8 -3 154 49 325 115 171 65 313 119
316 119 3 0 79 -52 168 -116 142 -103 166 -117 201 -117 34 0 69 18 220 113
99 62 186 115 195 117 14 4 457 -175 543 -219 37 -19 67 -19 67 0 0 5 -12 14
-26 21 -25 11 -334 229 -334 235 0 2 24 -5 53 -14 72 -24 167 -33 167 -16 0 9
-22 15 -64 20 -35 3 -79 12 -98 18 -45 16 -108 58 -108 73 0 7 48 42 107 78
107 66 108 67 119 44 6 -12 53 -122 104 -244 68 -163 97 -223 109 -223 10 1
73 98 176 275 88 151 162 275 165 275 3 0 31 -51 62 -113 64 -129 95 -170 148
-197 67 -34 220 -60 220 -37 0 8 -27 16 -77 23 -87 12 -141 34 -181 74 -24 24
-152 263 -152 283 0 4 52 95 115 202 130 218 128 215 116 234 -7 11 -89 -17
-407 -139 -220 -84 -413 -158 -431 -165 l-31 -13 -65 156 c-38 90 -71 157 -79
157 -7 0 -15 3 -18 7 -5 6 -180 -99 -487 -292 l-61 -39 -234 168 c-196 141
-237 167 -256 160 -12 -5 -22 -13 -22 -19 0 -14 -169 -300 -177 -300 -8 0
-725 296 -767 316 -35 17 -31 17 -43 2z m2116 -172 c34 -81 60 -151 57 -153
-2 -3 -61 -27 -130 -53 l-126 -48 -28 27 c-15 15 -33 30 -40 32 -9 3 17 57 84
169 84 143 113 185 120 177 1 -1 29 -69 63 -151z m-874 -9 c105 -74 198 -142
209 -149 17 -13 9 -20 -97 -86 -63 -40 -119 -72 -124 -72 -5 0 -32 55 -60 123
-29 67 -72 171 -97 231 -25 59 -40 104 -33 99 6 -6 98 -71 202 -146z m-842
-126 l297 -214 -19 -31 c-10 -17 -42 -71 -71 -120 -50 -85 -53 -88 -82 -82
-45 9 -96 36 -126 66 -15 15 -56 84 -91 154 -59 118 -96 166 -126 166 -7 0
-35 55 -63 123 -28 67 -58 140 -67 161 l-17 40 34 -25 c18 -14 167 -121 331
-238z m2607 212 c-184 -316 -183 -314 -211 -308 -39 9 -70 -28 -149 -175 -59
-110 -72 -128 -114 -154 -33 -21 -61 -30 -92 -30 l-45 -1 -50 119 c-27 65 -49
124 -48 130 0 10 704 454 722 455 5 1 -1 -16 -13 -36z m-1912 -170 c45 -108
80 -198 78 -200 -4 -4 -88 29 -171 67 -22 10 -66 28 -97 40 -32 12 -58 24 -58
27 0 10 153 263 159 263 4 0 44 -89 89 -197z m-622 52 c170 -70 312 -130 316
-134 10 -9 -72 -143 -86 -138 -11 4 -555 394 -566 405 -7 8 2 4 336 -133z
m1476 103 c-11 -18 -64 -107 -117 -198 -53 -91 -100 -168 -104 -172 -4 -4 -51
24 -105 64 -69 50 -94 73 -84 79 7 4 103 64 213 133 110 69 204 125 208 126 5
0 0 -15 -11 -32z m963 23 c-34 -30 -629 -390 -635 -384 -17 19 -54 127 -45
130 137 55 673 261 680 262 6 1 6 -2 0 -8z m-2032 -295 l39 -16 -20 -27 c-11
-16 -32 -53 -47 -83 -15 -30 -29 -56 -30 -58 -5 -6 -85 50 -81 57 41 75 89
151 94 147 4 -2 24 -11 45 -20z m1341 -38 c14 -35 26 -67 26 -73 0 -5 -50 -41
-111 -79 -104 -64 -111 -67 -124 -50 -25 34 -79 168 -69 171 5 2 59 24 119 48
61 23 115 44 121 44 6 1 23 -27 38 -61z m-620 -18 c112 -79 117 -65 -38 -124
l-89 -34 -66 28 c-36 15 -84 35 -105 44 l-39 16 109 69 c60 38 114 70 120 70
6 1 55 -30 108 -69z m-1319 -100 c36 -71 77 -143 92 -161 27 -32 113 -79 146
-79 9 0 17 -3 17 -6 0 -10 -104 -184 -110 -184 -5 0 -196 449 -236 555 -5 11
-2 13 10 9 8 -3 45 -64 81 -134z m1582 132 c26 -17 16 -34 -31 -52 -28 -11
-52 -17 -54 -15 -8 7 48 75 61 75 7 0 17 -4 24 -8z m-826 -104 l39 -78 -62
-39 -62 -40 -57 41 -58 40 29 58 c16 31 41 71 55 88 23 28 29 30 51 20 17 -8
39 -39 65 -90z m1759 67 c-1 -14 -303 -525 -311 -525 -7 0 -73 159 -68 164 2
2 30 11 62 20 81 24 123 65 186 188 64 122 98 170 117 166 8 -2 15 -7 14 -13z
m-1670 -40 c36 -15 66 -28 68 -29 1 -2 -21 -17 -48 -34 l-51 -32 -16 38 c-8
20 -22 50 -30 66 -12 23 -12 28 -2 23 8 -3 43 -17 79 -32z m826 -76 c30 -61
42 -95 35 -102 -6 -6 -45 16 -117 66 l-107 76 29 12 c63 25 99 38 106 38 4 1
28 -40 54 -90z m-1163 -67 c-43 -69 -115 -121 -170 -122 -20 0 -16 9 39 104
l62 105 43 -30 43 -30 -17 -27z m545 57 c42 -18 81 -35 85 -39 7 -6 -97 -50
-120 -50 -8 0 -53 98 -53 116 0 8 11 4 88 -27z m575 -90 l38 -28 -38 -24 c-21
-13 -43 -27 -50 -30 -6 -4 -52 9 -102 29 l-90 36 37 68 37 68 65 -46 c36 -25
82 -58 103 -73z m-670 49 l25 -63 -36 -17 c-21 -9 -40 -17 -44 -17 -11 -1 -68
79 -68 94 0 13 68 63 86 64 7 1 23 -27 37 -61z m418 10 c-16 -29 -32 -53 -35
-53 -2 0 -27 9 -55 20 l-51 20 82 32 c46 18 84 32 86 33 2 0 -10 -24 -27 -52z
m-782 -49 c34 -26 40 -34 29 -44 -19 -18 -420 -266 -424 -263 -1 2 18 41 44
86 l47 83 43 -5 c33 -4 42 -2 42 9 0 8 15 21 33 28 45 20 90 59 112 101 11 20
22 36 25 36 3 0 25 -14 49 -31z m244 -20 l27 -50 -34 -14 c-20 -8 -38 -15 -42
-15 -9 0 -84 54 -84 62 0 6 89 66 100 67 3 0 17 -22 33 -50z m422 14 c36 -15
65 -30 65 -35 0 -13 -61 -40 -108 -47 -25 -3 -47 -12 -50 -19 -5 -15 30 -16
77 -2 19 5 36 8 38 6 2 -2 -27 -56 -65 -120 l-69 -117 -37 88 c-20 48 -36 92
-36 97 0 4 16 5 35 2 27 -5 35 -4 35 8 0 10 -13 16 -42 18 -39 3 -45 7 -61 42
-10 21 -17 39 -15 41 3 2 160 64 165 65 2 0 32 -12 68 -27z m501 -55 l19 -23
-25 20 c-14 11 -27 21 -29 22 -2 2 0 3 6 3 5 0 18 -10 29 -22z m-313 -23 c42
-16 77 -33 77 -36 0 -4 -40 -32 -89 -62 -49 -31 -126 -79 -172 -107 l-82 -52
21 34 c11 18 50 84 87 146 36 62 70 112 74 110 4 -2 42 -16 84 -33z m-735 -1
c28 -22 31 -28 19 -35 -12 -7 -355 -140 -422 -164 -11 -4 63 45 165 109 102
63 189 116 194 116 5 0 25 -12 44 -26z m299 -4 c11 -29 10 -31 -10 -24 -12 3
-33 12 -47 19 l-25 14 25 10 c39 15 45 13 57 -19z m830 -75 c80 -58 142 -105
139 -105 -8 0 -342 137 -364 150 -10 5 -1 15 30 33 23 14 44 26 46 27 2 0 68
-47 149 -105z m-837 25 c10 0 22 -6 28 -12 13 -17 75 -168 71 -172 -2 -2 -68
42 -146 98 l-141 101 40 16 c38 15 42 14 86 -8 25 -13 53 -23 62 -23z"/>
<path d="M1043 1940 c0 -47 2 -68 4 -48 8 72 63 79 63 8 0 -22 5 -40 10 -40
13 0 13 51 0 86 -9 23 -15 26 -40 21 -26 -6 -29 -4 -33 26 -2 18 -4 -6 -4 -53z"/>
<path d="M870 2000 c0 -5 5 -10 10 -10 6 0 10 5 10 10 0 6 -4 10 -10 10 -5 0
-10 -4 -10 -10z"/>
<path d="M1171 1988 c0 -10 -6 -18 -13 -18 -9 0 -9 -3 0 -12 7 -7 12 -29 12
-50 0 -26 5 -41 15 -45 23 -8 33 7 12 18 -23 13 -23 65 1 78 15 9 15 10 0 11
-9 0 -19 8 -21 18 -4 16 -5 16 -6 0z"/>
<path d="M570 1963 c1 -28 30 -98 40 -98 7 0 19 16 25 35 l12 35 10 -35 c5
-19 15 -35 23 -35 13 0 38 55 39 88 2 30 -18 9 -25 -28 -8 -42 -21 -37 -30 11
-8 44 -26 39 -40 -11 -11 -42 -18 -39 -29 13 -3 17 -11 32 -16 32 -5 0 -9 -3
-9 -7z"/>
<path d="M756 1954 c-20 -20 -20 -58 0 -78 18 -19 60 -21 70 -4 5 7 1 9 -13 6
-22 -6 -53 7 -53 22 0 6 18 10 40 10 28 0 40 4 40 14 0 20 -28 46 -50 46 -10
0 -26 -7 -34 -16z m58 -25 c-7 -12 -41 -12 -49 0 -9 15 28 31 42 19 7 -6 10
-14 7 -19z"/>
<path d="M870 1915 c0 -30 5 -55 10 -55 6 0 10 25 10 55 0 30 -4 55 -10 55 -5
0 -10 -25 -10 -55z"/>
<path d="M932 1958 c-16 -21 -21 -116 -6 -129 18 -15 65 -7 78 14 14 22 -5 36
-49 38 -27 2 -28 2 -5 6 35 7 47 19 52 53 4 28 2 30 -28 30 -17 0 -36 -6 -42
-12z m48 -28 c0 -23 -29 -35 -36 -15 -4 8 -4 22 0 30 7 20 36 8 36 -15z m0
-70 c13 -9 13 -11 0 -20 -18 -12 -21 -12 -39 -1 -15 10 -7 31 12 31 7 0 19 -5
27 -10z"/>
<path d="M1247 1963 c-16 -15 -6 -44 18 -53 42 -16 31 -36 -19 -30 -11 1 -15
-3 -12 -9 11 -16 52 -13 67 5 11 14 10 19 -9 34 -12 10 -28 21 -35 23 -17 8
12 27 30 20 7 -3 13 0 13 6 0 12 -42 15 -53 4z"/>
<path d="M1340 1955 c0 -8 5 -15 10 -15 6 0 10 7 10 15 0 8 -4 15 -10 15 -5 0
-10 -7 -10 -15z"/>
<path d="M1340 1875 c0 -8 5 -15 10 -15 6 0 10 7 10 15 0 8 -4 15 -10 15 -5 0
-10 -7 -10 -15z"/>
<path d="M152 1715 c-23 -51 -9 -185 19 -185 5 0 4 12 -2 28 -6 15 -10 50 -10
77 0 28 4 62 10 78 13 34 -2 36 -17 2z"/>
<path d="M1837 1718 c4 -13 8 -50 8 -83 0 -33 -4 -70 -8 -82 -5 -14 -4 -23 1
-23 15 0 32 57 32 105 0 48 -17 105 -32 105 -5 0 -6 -9 -1 -22z"/>
<path d="M520 1649 c0 -51 4 -79 9 -73 5 5 11 25 13 44 2 27 8 36 26 38 20 3
22 -1 22 -42 0 -25 5 -46 10 -46 13 0 13 66 -1 92 -8 15 -17 18 -35 14 -20 -5
-24 -3 -24 18 0 14 -4 28 -10 31 -6 4 -10 -24 -10 -76z"/>
<path d="M770 1699 c0 -26 -3 -29 -20 -24 -29 9 -50 -12 -50 -51 0 -38 13 -49
57 -49 l33 0 0 78 c0 45 -4 77 -10 77 -5 0 -10 -14 -10 -31z m-5 -74 c0 -25
-4 -30 -25 -30 -16 0 -26 6 -28 18 -6 30 6 49 30 45 18 -2 23 -9 23 -33z"/>
<path d="M1190 1653 l0 -78 37 0 c30 0 40 5 52 26 13 24 13 29 -3 54 -14 21
-23 25 -42 21 -21 -6 -24 -3 -24 24 0 16 -4 30 -10 30 -6 0 -10 -32 -10 -77z
m75 -28 c0 -25 -4 -30 -25 -30 -16 0 -26 6 -28 18 -6 30 6 49 30 45 18 -2 23
-9 23 -33z"/>
<path d="M380 1710 c0 -5 5 -10 10 -10 6 0 10 5 10 10 0 6 -4 10 -10 10 -5 0
-10 -4 -10 -10z"/>
<path d="M1520 1710 c0 -5 5 -10 10 -10 6 0 10 5 10 10 0 6 -4 10 -10 10 -5 0
-10 -4 -10 -10z"/>
<path d="M445 1700 c-11 -17 -7 -87 6 -112 10 -19 39 -25 39 -8 0 6 -7 10 -15
10 -23 0 -21 77 3 83 15 4 15 5 0 6 -9 0 -18 9 -20 19 -3 14 -5 15 -13 2z"/>
<path d="M980 1698 c0 -9 -6 -19 -12 -21 -10 -4 -10 -6 0 -6 8 -1 12 -17 12
-46 0 -48 20 -69 43 -46 8 8 7 11 -6 11 -25 0 -25 80 1 81 13 0 14 2 2 6 -8 4
-20 13 -27 22 -11 15 -12 14 -13 -1z"/>
<path d="M1450 1698 c0 -9 -6 -19 -12 -21 -10 -4 -10 -6 0 -6 8 -1 12 -17 12
-46 0 -48 20 -69 43 -46 8 8 7 11 -6 11 -25 0 -25 80 1 81 13 0 14 2 2 6 -8 4
-20 13 -27 22 -11 15 -12 14 -13 -1z"/>
<path d="M203 1666 c3 -8 11 -33 18 -55 14 -48 28 -48 45 0 l12 34 11 -28 c6
-16 11 -33 11 -38 0 -6 5 -9 12 -7 14 5 50 108 38 108 -5 0 -14 -18 -20 -40
-13 -47 -26 -45 -36 5 -9 48 -20 44 -37 -12 l-14 -48 -13 48 c-7 26 -17 47
-22 47 -6 0 -8 -6 -5 -14z"/>
<path d="M387 1673 c-11 -10 -8 -91 3 -98 6 -4 10 15 10 49 0 57 -1 61 -13 49z"/>
<path d="M833 1625 c0 -33 2 -45 4 -27 2 18 2 45 0 60 -2 15 -4 0 -4 -33z"/>
<path d="M893 1673 c-22 -8 -14 -39 13 -52 33 -14 26 -37 -11 -34 -20 2 -25
-1 -17 -9 6 -6 22 -8 36 -4 34 8 35 42 1 58 -30 13 -28 33 3 32 12 0 19 3 16
8 -6 9 -22 9 -41 1z"/>
<path d="M1057 1673 c-11 -10 -8 -91 3 -98 6 -4 10 10 10 35 0 33 4 43 20 47
11 3 20 9 20 14 0 13 -17 11 -26 -2 -5 -8 -8 -8 -13 0 -4 6 -10 8 -14 4z"/>
<path d="M1143 1625 c0 -33 2 -45 4 -27 2 18 2 45 0 60 -2 15 -4 0 -4 -33z"/>
<path d="M1320 1637 c0 -51 12 -64 58 -64 l32 0 0 54 c0 63 -18 72 -22 11 -2
-36 -7 -44 -25 -46 -21 -3 -23 1 -23 37 0 22 -4 43 -10 46 -6 4 -10 -11 -10
-38z"/>
<path d="M1527 1673 c-11 -10 -8 -91 3 -98 6 -4 10 15 10 49 0 57 -1 61 -13
49z"/>
<path d="M1590 1660 c-25 -25 -25 -41 -1 -71 16 -20 23 -22 47 -14 52 18 41
105 -13 105 -7 0 -22 -9 -33 -20z m65 -19 c10 -31 -5 -52 -34 -49 -26 3 -38
26 -27 54 8 21 53 18 61 -5z"/>
<path d="M1712 1625 c1 -58 1 -58 7 -15 5 40 9 45 31 45 22 0 26 -5 30 -45 3
-29 8 -40 13 -32 5 7 6 30 2 52 -7 42 -35 61 -60 40 -10 -8 -14 -8 -18 2 -3 7
-5 -14 -5 -47z"/>
<path d="M680 1120 c0 -5 5 -10 10 -10 6 0 10 5 10 10 0 6 -4 10 -10 10 -5 0
-10 -4 -10 -10z"/>
<path d="M1120 1105 c0 -8 -6 -15 -12 -15 -10 0 -10 -2 -1 -8 6 -4 13 -28 15
-52 2 -38 7 -46 26 -48 12 -2 22 1 22 7 0 6 -7 11 -15 11 -23 0 -21 77 3 83
16 4 16 5 0 6 -10 0 -18 8 -18 16 0 8 -4 15 -10 15 -5 0 -10 -7 -10 -15z"/>
<path d="M680 1035 c0 -30 5 -55 10 -55 6 0 10 25 10 55 0 30 -4 55 -10 55 -5
0 -10 -25 -10 -55z"/>
<path d="M742 1030 c1 -42 2 -46 5 -18 8 72 63 79 63 8 0 -22 5 -40 10 -40 13
0 13 51 0 84 -8 22 -15 26 -45 24 l-35 -3 2 -55z"/>
<path d="M860 1013 c0 -42 4 -73 10 -73 6 0 10 11 10 25 0 22 3 25 24 19 43
-10 70 40 46 86 -8 14 -20 19 -50 17 l-40 -1 0 -73z m75 22 c0 -25 -4 -30 -25
-30 -16 0 -26 6 -28 18 -6 30 6 49 30 45 18 -2 23 -9 23 -33z"/>
<path d="M990 1046 c0 -51 13 -65 58 -64 32 1 32 1 32 55 0 63 -17 72 -22 11
-2 -35 -7 -43 -23 -43 -16 0 -21 8 -23 43 -4 55 -22 54 -22 -2z"/>
<path d="M1200 1075 c0 -8 5 -15 10 -15 6 0 10 7 10 15 0 8 -4 15 -10 15 -5 0
-10 -7 -10 -15z"/>
<path d="M1200 995 c0 -8 5 -15 10 -15 6 0 10 7 10 15 0 8 -4 15 -10 15 -5 0
-10 -7 -10 -15z"/>
<path d="M3460 425 c0 -2 16 -33 35 -68 19 -35 35 -68 35 -74 0 -6 -16 -39
-35 -73 -19 -34 -35 -66 -35 -71 0 -5 12 -9 28 -9 23 0 32 9 56 54 16 30 33
53 38 50 5 -3 20 -28 33 -55 22 -42 29 -49 55 -49 17 0 30 4 30 10 0 5 -17 39
-37 76 l-37 67 35 65 c19 36 36 69 37 74 2 4 -10 8 -27 8 -27 0 -34 -6 -56
-51 -30 -57 -40 -56 -70 11 -16 35 -22 40 -52 40 -18 0 -33 -2 -33 -5z"/>
</g>
</svg>
