<?xml version="1.0" encoding="UTF-8"?><svg id="a" xmlns="http://www.w3.org/2000/svg" xmlns:xlink="http://www.w3.org/1999/xlink" viewBox="0 0 483.38 477.29"><defs><style>.i{fill:#5a9fae;}.j{fill:#0e1d32;}.k{fill:#13263f;}.l{fill:#518896;}.m{fill:#ddeee0;}.n{fill:#678f99;}.o{fill:#9fd7d7;}.p{fill:#b3e1e7;}.q{fill:#65a2b0;}.r{fill:#91bdb7;}.s{fill:#0b0c1b;}.t{fill:#7aa8b6;}.u{fill:#b3d5d9;}.v{fill:#122a46;}.w{fill:#266a8a;}.x{fill:#e3eedf;}.y{fill:#2d6a8a;}.z{fill:#102a42;}.aa{fill:#3c7386;}.ab{fill:#0d1e34;}.ac{fill:#43a9bf;}.ad{fill:#31647f;}.ae{fill:#121c30;}.af{fill:#1cadc2;}.ag{fill:#a2c0ba;}.ah{fill:#bbd5ca;}.ai{fill:#1d3654;}.aj{fill:#54a2ad;}.ak{fill:#295676;}.al{fill:#a6e6e7;}.am{fill:#8fc6cf;}.an{fill:#1b3950;}.ao{fill:#2d465c;}.ap{fill:#5ba3b3;}.aq{fill:#101c33;}.ar{fill:#89ccd5;}.as{fill:#1e2c41;}.at{fill:#488b96;}.au{fill:#0c142a;}.av{fill:#72bcc3;}.aw{fill:#64b7bf;}.ax{fill:#0a0e1d;}.ay{fill:#308da3;}.az{fill:#9dc3bf;}.ba{fill:#d6f1e6;}.bb{fill:#b0d8d5;}.bc{fill:#0c172a;}.bd{fill:#5f8496;}.be{fill:#3e7990;}.bf{fill:#0d2a49;}.bg{fill:#51949f;}.bh{fill:#d5f2e8;}.bi{fill:#8dbebe;}.bj{fill:#26364c;}.bk{fill:#30506c;}.bl{fill:#72b0b6;}.bm{fill:#255772;}.bn{fill:#0e233c;}.bo{fill:#4d7c87;}.bp{fill:#0d152b;}.bq{fill:#4fabc3;}.br{fill:#36718c;}.bs{fill:#306f84;}.bt{fill:#f2f4e2;}.bu{fill:#467f8a;}.bv{fill:#0e1524;}.bw{fill:#0e2741;}.bx{fill:#0a1c30;}.by{fill:#74979b;}.bz{fill:#66a6b1;}.ca{fill:#233b57;}.cb{fill:#134c6b;}.cc{fill:#070b17;}.cd{fill:#216280;}.ce{fill:#0f324e;}.cf{fill:#51737f;}.cg{fill:#a3c4b5;}.ch{fill:#1b4e6e;}.ci{fill:#4e7684;}.cj{fill:#5ca0ab;}.ck{fill:#498b9f;}.cl{fill:#3e7687;}.cm{fill:#305c73;}.cn{fill:#7ea7b2;}.co{fill:#103351;}.cp{fill:#213c58;}.cq{fill:none;}.cr{fill:#0b0c1c;}.cs{fill:#c9dbda;}.ct{fill:#a4cdcf;}.cu{fill:#c3dbcf;}.cv{fill:#2f4259;}.cw{fill:#35435c;}.cx{fill:#497d90;}.cy{fill:#2e708e;}.cz{fill:#070c17;}.da{fill:#0d2033;}.db{fill:#156281;}.dc{fill:#507a86;}.dd{fill:#45a4b5;}.de{fill:#3188a7;}.df{fill:#0d1931;}.dg{fill:#327e9b;}.dh{fill:#1c4d6a;}.di{fill:#b5e5e2;}.dj{fill:#0a1224;}.dk{fill:#4a778d;}.dl{fill:#070819;}.dm{fill:#5ca2ae;}.dn{fill:#14223a;}.do{fill:#dcf4e4;}.dp{fill:#b5d4ca;}.dq{fill:#0c1021;}.dr{fill:#090719;}.ds{fill:#74a6a8;}.dt{fill:#0a0b1b;}.du{fill:#13486a;}.dv{fill:#307491;}.dw{fill:#419eac;}.dx{fill:#376b89;}.dy{fill:#77bbc2;}.dz{fill:#070917;}.ea{fill:#2b5371;}.eb{fill:#f0f3e3;}.ec{fill:#24506e;}.ed{fill:#0d182d;}.ee{fill:#c1dbc7;}.ef{fill:#2c4a66;}.eg{fill:#63b0bc;}.eh{fill:#4f91a1;}.ei{fill:#ebf3e4;}.ej{fill:#225d7a;}.ek{fill:#3c798e;}.el{fill:#578d9d;}.em{fill:#3b87a2;}.en{fill:#acd2cd;}.eo{fill:#89b7c3;}.ep{fill:#123e5c;}.eq{fill:#09182e;}.er{fill:#58808b;}.es{fill:#080b19;}.et{fill:#2b455e;}.eu{fill:#82b7b9;}.ev{fill:#081429;}.ew{fill:#98cdcc;}.ex{fill:#a8d8d4;}.ey{fill:#285976;}.ez{fill:#3b768d;}.fa{fill:#174c67;}.fb{fill:#b7e6df;}.fc{fill:#3c738a;}.fd{fill:#d9e8e1;}.fe{clip-path:url(#g);}.ff{fill:#388597;}.fg{fill:#0d2a47;}.fh{fill:#71bfc6;}.fi{fill:#324d63;}.fj{fill:#0d192c;}.fk{fill:#264e6a;}.fl{fill:#0d192f;}.fm{fill:#add6d0;}.fn{fill:#8fcfd1;}.fo{fill:#abdcda;}.fp{fill:#236380;}.fq{fill:#103452;}.fr{fill:#1c4e72;}.fs{fill:#101e35;}.ft{fill:#b5d8d2;}.fu{fill:#a1c9c2;}.fv{fill:#0c2037;}.fw{fill:#0e2038;}.fx{fill:#0e1c34;}.fy{fill:#71b8c1;}.fz{fill:#e5f4e7;}.ga{fill:#35556e;}.gb{fill:#163f5d;}.gc{fill:#155370;}.gd{fill:#2685c0;}.ge{fill:#284b65;}.gf{fill:#102640;}.gg{fill:#23486d;}.gh{fill:#9cd3d2;}.gi{clip-path:url(#e);}.gj{fill:#508593;}.gk{fill:#9ac8cc;}.gl{fill:#11354f;}.gm{fill:#316a7f;}.gn{fill:#0a2843;}.go{fill:#4b939c;}.gp{fill:#132a43;}.gq{fill:#071224;}.gr{fill:#a0d7d3;}.gs{fill:#6f9fa2;}.gt{fill:#508796;}.gu{fill:#0d4568;}.gv{fill:#0f203a;}.gw{fill:#0f3b58;}.gx{fill:#2c5e7f;}.gy{fill:#326884;}.gz{fill:#99babe;}.ha{fill:#588595;}.hb{fill:#3b9eb6;}.hc{fill:#0c0f21;}.hd{fill:#2f5876;}.he{fill:#072038;}.hf{fill:#0c203a;}.hg{fill:#0b1f36;}.hh{fill:#146181;}.hi{fill:#255674;}.hj{fill:#b3d3cb;}.hk{fill:#578d97;}.hl{fill:#a0c2bc;}.hm{fill:#193f5d;}.hn{fill:#f4f6e7;}.ho{fill:#3a7491;}.hp{fill:#4d8d95;}.hq{fill:#0b1323;}.hr{fill:#49879b;}.hs{fill:#2b4860;}.ht{fill:#3a6d83;}.hu{fill:#193d5e;}.hv{fill:#193245;}.hw{fill:#b5cec7;}.hx{fill:#1a2738;}.hy{fill:#15354e;}.hz{fill:#73dee2;}.ia{fill:#5dafc2;}.ib{fill:#b4e3df;}.ic{fill:#233c53;}.id{fill:#12243d;}.ie{fill:#9ec5be;}.if{fill:#0e2037;}.ig{fill:#0c182d;}.ih{fill:#366981;}.ii{fill:#0e2745;}.ij{fill:#1d3e5d;}.ik{fill:#a3d3d3;}.il{fill:#cae4da;}.im{fill:#598993;}.in{fill:#33687d;}.io{fill:#2d4860;}.ip{fill:#121f35;}.iq{fill:#3e798b;}.ir{fill:#b9ddcf;}.is{fill:#0b1b31;}.it{fill:#0e2844;}.iu{fill:#4e8a9c;}.iv{fill:#080715;}.iw{fill:#233b54;}.ix{fill:#0e1f37;}.iy{fill:#1b4866;}.iz{fill:#1b506c;}.ja{fill:#89b2b2;}.jb{fill:#4e828e;}.jc{fill:#406b88;}.jd{fill:#0e2f4a;}.je{fill:#233450;}.jf{fill:#52919a;}.jg{fill:#f0f3dd;}.jh{fill:#b4d9d0;}.ji{fill:#51a9b8;}.jj{fill:#4e8995;}.jk{fill:#0f1c2f;}.jl{fill:#0f2842;}.jm{fill:#b0d2ca;}.jn{fill:#132034;}.jo{fill:#0f2f4c;}.jp{fill:#20607d;}.jq{fill:#eff1dc;}</style><clipPath id="e"><polygon class="cq" points="318.98 127.16 318.98 127.16 387.8 127.16 387.8 156.11 318.98 156.11 318.98 127.16"/></clipPath><clipPath id="g"><polygon class="cq" points="456.95 127.16 456.95 127.16 388.13 127.16 388.13 156.11 456.95 156.11 456.95 127.16"/></clipPath></defs><g id="b"><rect class="ev" width="483.38" height="477.29"/></g><g id="c"><polygon class="gf" points="227.95 75.73 266.11 37.02 293.1 60.7 254.91 61.68 227.95 75.73"/><polygon class="fq" points="311.28 271.58 342.49 258.75 364.89 228.83 311.28 271.58"/><g id="d"><g class="gi"><polygon class="fq" points="318.98 156.11 387.8 129.31 386.03 127.16 318.98 156.11"/></g></g><g id="f"><g class="fe"><polygon class="fq" points="456.95 156.11 388.13 129.31 389.89 127.16 456.95 156.11"/></g></g><polygon class="bu" points="315.94 108.39 346.56 68.16 344.72 66.95 315.94 108.39"/><polygon class="bu" points="310.1 75.06 302.77 70.76 275.2 104.58 310.1 75.06"/><polyline class="ic" points="340.15 227.09 364.88 213.64 363.23 208.45"/><polygon class="ic" points="293.9 239.22 336.29 242.96 311.28 271.58 293.9 239.22"/></g><g id="h"><polygon class="fh" points="174.24 65.7 196.91 117.59 207.96 87.67 174.24 65.7"/><polygon class="ac" points="232.07 105.51 196.91 117.59 207.96 87.67 232.07 105.51"/><polygon class="hk" points="174.24 65.7 205.45 59.05 207.96 87.67 174.24 65.7"/><polygon class="hd" points="211.97 64.18 205.45 59.05 207.96 87.67 211.97 64.18"/><polygon class="ea" points="227.95 75.73 211.97 64.18 207.96 87.67 227.95 75.73"/><polygon class="br" points="232.07 105.51 227.95 75.73 207.96 87.67 232.07 105.51"/><polygon class="dm" points="232.07 105.51 196.91 117.59 208.4 130.86 232.07 105.51"/><polygon class="eh" points="224.05 137.4 232.07 105.51 208.4 130.86 224.05 137.4"/><polygon class="hh" points="252.6 151.93 224.05 137.4 232.07 105.51 255.3 120.05 252.6 151.93"/><polygon class="em" points="227.95 75.73 232.07 105.51 255.3 120.05 227.95 75.73"/><polygon class="gb" points="259.47 92.9 227.95 75.73 255.3 120.05 259.47 92.9"/><polygon class="hg" points="254.91 61.68 259.47 92.9 227.95 75.73 254.91 61.68"/><polygon class="if" points="293.1 60.7 254.91 61.68 259.47 92.9 293.1 60.7"/><polygon class="ch" points="267.99 109.14 259.47 92.9 293.1 60.7 267.99 109.14"/><polygon class="cd" points="255.3 120.05 267.99 109.14 259.47 92.9 255.3 120.05"/><polygon class="hi" points="266.93 132.09 255.3 120.05 267.99 109.14 266.93 132.09"/><polygon class="co" points="252.6 151.93 285.03 172.33 266.93 132.09 255.3 120.05 252.6 151.93"/><polygon class="ec" points="267.99 109.14 284.93 138.33 293.83 170.62 285.03 172.33 266.93 132.09 267.99 109.14"/><polygon class="k" points="304.28 99.3 267.99 109.14 284.78 138.33 292.28 137.12 304.28 99.3"/><polygon class="k" points="293.83 170.62 292.28 137.12 284.78 138.33 293.83 170.62"/><polygon class="aq" points="208.4 130.86 205.11 139.18 220.04 143.4 224.05 137.4 208.4 130.86"/><polygon class="bc" points="252.6 151.93 224.05 137.4 220.04 143.4 252.6 151.93"/><polygon class="gx" points="208.4 130.86 184.66 133.28 205.11 139.18 208.4 130.86"/><polygon class="dx" points="184.77 139.21 184.66 133.28 200.29 137.79 184.77 139.21"/><polygon class="ab" points="205.11 139.18 184.34 149.84 184.77 139.21 200.29 137.79 205.11 139.18"/><polygon class="ak" points="184.66 133.28 165.29 141.62 184.77 139.21 184.66 133.28"/><polygon class="is" points="184.34 149.84 165.29 141.62 184.77 139.21 184.34 149.84"/><polygon class="dt" points="148.8 161.52 184.34 149.84 165.29 141.62 148.8 161.52"/><polygon class="hx" points="153.61 165.32 148.8 161.52 184.34 149.84 153.61 165.32"/><polygon class="dn" points="146.56 142.71 165.29 141.62 148.67 161.94 142.76 156.79 146.56 142.71"/><polygon class="cl" points="135.48 151.2 146.62 142.5 142.76 156.79 135.48 151.2"/><polygon class="fy" points="196.91 117.59 184.66 133.28 208.4 130.86 196.91 117.59"/><polygon class="bh" points="176.77 121.1 184.66 133.28 196.91 117.59 176.77 121.1"/><polygon class="bh" points="162.06 133.93 176.77 121.1 184.66 133.28 162.06 133.93"/><polygon class="fb" points="165.29 141.62 162.06 133.93 184.66 133.28 165.29 141.62"/><polygon class="ex" points="146.56 142.71 165.29 141.62 162.06 133.93 146.56 142.71"/><polygon class="ei" points="174.24 65.7 143.14 97.6 162.06 133.93 176.77 121.1 196.91 117.59 174.24 65.7"/><polygon class="jh" points="172.67 44.01 174.24 65.7 143.14 97.6 150.8 73.07 172.67 44.01"/><polygon class="bh" points="180.55 43.35 172.67 44.01 174.3 65.7 180.55 43.35"/><polygon class="gy" points="205.21 59.15 174.24 65.7 180.55 43.35 195.37 46.16 205.21 59.15"/><polygon class="dd" points="137.06 69.34 150.8 73.07 172.67 44.01 137.06 69.34"/><polygon class="bj" points="195.37 46.16 221.89 46.19 205.21 59.15 195.37 46.16"/><polygon class="gp" points="235.04 56.71 221.89 46.19 205.21 59.15 227.95 75.73 235.04 56.71"/><polygon class="id" points="266.11 37.02 235.04 56.71 227.95 75.73 266.11 37.02"/><polygon class="ds" points="137.06 69.34 130.17 85.97 150.92 72.91 137.06 69.34"/><polygon class="fu" points="143.14 97.6 130.17 85.97 150.92 72.91 143.14 97.6"/><polygon class="ft" points="116.62 141.64 130.17 85.97 143.14 97.6 116.62 141.64"/><polygon class="gh" points="130.49 144.02 116.62 141.64 143.14 97.6 130.49 144.02"/><polygon class="bh" points="162.06 133.93 145.88 143.09 130.49 144.02 143.14 97.6 162.06 133.93"/><polygon class="gr" points="135.48 151.2 130.49 144.02 145.88 143.09 135.48 151.2"/><polygon class="av" points="116.62 141.64 126.66 163.35 130.49 144.02 116.62 141.64"/><polygon class="eg" points="133.38 177.89 135.48 151.2 130.49 144.02 126.66 163.35 133.38 177.89"/><polygon class="ay" points="135.48 151.2 153.7 165.2 146.79 180.77 135.48 151.2"/><polygon class="ew" points="133.27 178.14 146.79 180.77 135.48 151.2 132.08 173.6 133.27 178.14"/><polygon class="hm" points="116.62 141.64 112.65 149.77 113.82 159.97 124.93 166.13 133.38 177.89 116.62 141.64"/><polygon class="eo" points="117.56 174.81 113.82 159.97 124.93 166.13 133.38 177.89 117.56 174.81"/><polygon class="gd" points="120.35 183.52 117.56 174.81 125.81 176.42 120.35 183.52"/><polygon class="av" points="132.24 184.93 133.38 177.89 125.81 176.42 119.94 184 132.24 184.93"/><polygon class="dr" points="112.55 186.49 119.94 184 132.24 184.93 128.32 192.33 127.78 191.02 129.13 188.15 119.34 186.67 113.36 187.44 112.55 186.49"/><polygon class="fd" points="133.21 177.89 146.79 180.77 114.27 225.55 95.58 241.99 106.75 225.51 132.24 184.93 133.21 177.89"/><polygon class="az" points="147.73 201.01 146.79 180.77 138.59 192.06 147.73 201.01"/><polygon class="ja" points="124.75 211.05 147.73 201.01 138.59 192.06 124.75 211.05"/><polygon class="er" points="143.45 218.09 147.73 201.01 124.75 211.05 143.45 218.09"/><polygon class="ct" points="114.27 225.55 124.12 225.49 124.75 211.05 114.27 225.55"/><polygon class="et" points="143.45 218.09 124.12 225.49 124.75 211.05 143.45 218.09"/><polygon class="fp" points="139.96 234.34 143.45 218.09 124.12 225.49 139.96 234.34"/><polygon class="ff" points="155.64 217.65 143.45 218.09 139.96 234.34 155.64 217.65"/><polygon class="cj" points="147.73 201.01 155.64 217.65 143.45 218.09 147.73 201.01"/><polygon class="aw" points="152.02 241.08 155.64 217.65 139.96 234.34 152.02 241.08"/><polygon class="cf" points="124.12 225.49 132.2 237.32 152.02 241.08 124.12 225.49"/><polygon class="by" points="114.27 225.55 124.12 225.49 132.2 237.32 127.64 236.5 114.27 225.55"/><polygon class="hw" points="116.29 237.34 114.27 225.55 127.64 236.5 116.29 237.34"/><polygon class="ah" points="95.58 241.99 114.27 225.55 116.29 237.34 106.45 244.55 95.58 241.99"/><polygon class="p" points="99.69 248.69 106.45 244.55 95.58 241.99 96.32 250.86 99.69 248.69"/><polygon class="ho" points="105.8 260.46 99.69 248.69 96.32 250.86 99.31 257.21 105.8 260.46"/><polygon class="cn" points="106.45 244.55 106.77 250.73 99.69 248.69 106.45 244.55"/><polygon class="io" points="112.24 251.76 106.77 250.73 106.45 244.55 120.83 247.14 112.24 251.76"/><polygon class="ha" points="116.29 237.34 120.83 247.14 106.45 244.55 116.29 237.34"/><polygon class="hj" points="127.64 236.5 116.29 237.34 120.83 247.14 127.64 236.5"/><polygon class="dc" points="134.91 247.32 127.64 236.5 120.83 247.14 134.91 247.32"/><polygon class="ae" points="134.53 253.73 134.91 247.32 120.83 247.14 134.53 253.73"/><polygon class="ag" points="127.64 236.5 141.92 239.07 134.53 253.73 134.91 247.32 127.64 236.5"/><polygon class="as" points="149.23 250.47 141.92 239.07 134.53 253.73 145.31 258.75 149.23 250.47"/><polygon class="o" points="152.02 241.08 141.92 239.07 149.23 250.47 152.02 241.08"/><polygon class="o" points="159.44 250.42 149.23 250.47 152.02 241.08 159.44 250.42"/><polygon class="o" points="157.4 263.35 159.44 250.42 149.23 250.47 157.4 263.35"/><polygon class="fi" points="145.31 258.75 157.4 263.35 149.23 250.47 145.31 258.75"/><polygon class="as" points="145.64 267.35 157.4 263.35 145.31 258.75 145.64 267.35"/><polygon class="as" points="112.24 251.76 110.42 259.26 128.32 253.92 145.64 267.35 145.31 258.75 120.83 247.14 112.24 251.76"/><polygon class="ao" points="147.05 273.33 145.64 267.35 157.4 263.35 147.05 273.33"/><polygon class="ci" points="131.28 282.71 147.05 273.33 128.71 271.58 131.28 282.71"/><polygon class="cv" points="137.71 261.2 128.71 271.58 147.05 273.33 145.64 267.35 137.71 261.2"/><polygon class="ip" points="124.53 266.23 128.71 271.58 137.71 261.2 124.53 266.23"/><polygon class="ax" points="128.32 253.92 124.53 266.23 137.71 261.2 128.32 253.92"/><polygon class="dz" points="110.42 259.26 116.7 265.72 124.53 266.23 128.32 253.92 110.42 259.26"/><polygon class="gg" points="116.7 265.72 117.21 267.24 105.8 260.46 99.69 248.69 107.14 250.84 112.24 251.76 110.42 259.26 116.7 265.72"/><polygon class="el" points="120.83 278.16 122.95 273.66 120.31 265.86 116.7 265.72 120.83 278.16"/><polygon class="ci" points="131.28 282.71 125.57 285.87 128.71 271.58 131.28 282.71"/><path class="w" d="M122.91,274.49l5.8-2.91s-2.71,14.54-3.14,14.28-2.66-11.37-2.66-11.37Z"/><polygon class="cw" points="120.31 265.86 124.53 266.23 128.71 271.58 122.91 274.49 120.31 265.86"/><polygon class="t" points="119.99 289.81 113.86 289.44 115.39 296.53 126.67 308.35 121.3 296.1 119.99 289.81"/><polygon class="u" points="125.57 285.87 119.99 289.81 113.86 289.44 115.49 285.09 120.83 278.16 122.95 273.66 125.57 285.87"/><polygon class="cu" points="155.64 217.65 168.15 232.22 171.47 268.31 157.4 263.35 159.44 250.42 155.64 217.65"/><polygon class="fz" points="163.59 287 171.47 268.31 181.37 293.82 168.95 296.91 163.59 287"/><polygon class="ib" points="152.77 300.72 168.95 296.91 163.59 287 152.77 300.72"/><polygon class="jq" points="157.4 263.35 155.57 283.56 152.77 300.72 163.59 287 171.47 268.31 157.4 263.35"/><polygon class="en" points="139.4 291.77 155.7 282.79 157.4 263.35 146.52 273.57 145.34 282.47 139.4 291.77"/><polygon class="bb" points="124.06 286.75 139.4 291.77 145.34 282.47 146.52 273.57 124.06 286.75"/><polygon class="o" points="152.77 300.72 139.4 291.77 155.7 282.79 152.77 300.72"/><polygon class="at" points="168.95 296.91 152.77 300.72 173.53 314.62 168.95 296.91"/><polygon class="aj" points="181.37 293.82 168.95 296.91 173.53 314.62 181.37 293.82"/><polygon class="dy" points="199.45 266.58 171.47 268.31 181.37 293.82 199.45 266.58"/><polygon class="in" points="209.21 301.13 199.45 266.58 181.37 293.82 209.21 301.13"/><polygon class="al" points="184.32 230.13 171.47 268.31 199.45 266.58 184.32 230.13"/><polygon class="fo" points="168.15 232.22 184.32 230.13 171.47 268.31 168.15 232.22"/><polygon class="hz" points="217.12 226.38 184.32 230.13 199.45 266.58 217.12 226.38"/><polygon class="hh" points="266.9 207.64 217.12 226.38 199.45 266.58 255.73 230.08 266.9 207.64"/><polygon class="it" points="233.35 264.55 199.45 266.58 255.73 230.08 233.35 264.55"/><path class="bw" d="M270.82,239.3c-.53-.08-15.09-9.22-15.09-9.22l-22.38,34.48,37.47-25.25Z"/><polygon class="eq" points="242.31 272.18 233.35 264.55 199.45 266.58 242.31 272.18"/><polygon class="gu" points="254.49 298.17 242.31 272.18 199.45 266.58 209.21 301.13 254.49 298.17"/><polygon class="dg" points="275.2 300.9 242.31 272.18 254.49 298.17 275.2 300.9"/><polygon class="bq" points="245.4 320.03 275.2 300.9 254.49 298.17 245.4 320.03"/><polygon class="de" points="209.21 301.13 245.4 320.03 254.49 298.17 209.21 301.13"/><polygon class="be" points="201.36 317.26 209.21 301.13 245.4 320.03 221.17 342.25 201.36 317.26"/><polygon class="bz" points="181.37 293.82 201.36 317.26 209.21 301.13 181.37 293.82"/><polygon class="fk" points="195.92 357.9 201.36 317.26 221.17 342.25 195.92 357.9"/><polygon class="iz" points="174.52 341.75 187.89 344.04 195.92 357.9 201.36 317.26 186.41 327.29 174.52 341.75"/><polygon class="go" points="173.53 314.62 186.41 327.29 201.36 317.26 181.37 293.82 173.53 314.62"/><polygon class="o" points="178.95 326.56 173.53 314.62 186.41 327.29 178.95 326.56"/><polygon class="jf" points="174.52 341.75 166.52 326.98 178.95 326.56 186.41 327.29 174.52 341.75"/><polygon class="l" points="153.17 326.98 166.52 326.98 178.95 326.56 171.46 315.58 153.17 326.98"/><path class="hp" d="M163.48,341.98c.09-.35,3.04-15,3.04-15l8,14.76-11.04.24Z"/><polygon class="gj" points="153.17 326.98 163.48 341.98 166.52 326.98 153.17 326.98"/><polygon class="cm" points="153.2 342.19 153.17 326.98 163.48 341.98 153.2 342.19"/><polygon class="an" points="139.4 291.77 150.64 306.44 163.48 312.37 173.53 314.62 139.4 291.77"/><polygon class="bd" points="121.3 296.1 129.99 295.69 124.06 286.75 119.99 289.81 121.3 296.1"/><polygon class="bd" points="124.13 302.67 129.99 295.69 121.3 296.1 124.13 302.67"/><polygon class="bm" points="135.26 308.05 124.13 302.67 126.67 308.35 135.26 308.05"/><polygon class="bd" points="129.99 295.69 135.26 308.05 124.13 302.67 129.99 295.69"/><polygon class="ga" points="129.99 295.69 137.02 297.75 150.64 306.44 139.4 291.77 124.06 286.75 129.99 295.69"/><polygon class="ga" points="135.26 308.05 137.02 297.75 129.99 295.69 135.26 308.05"/><polygon class="fv" points="150.64 306.44 135.26 308.05 137.02 297.75 150.64 306.44"/><polygon class="bv" points="115.39 296.53 119.54 308.03 123.65 311.93 134.11 310.22 144 308.6 162.8 313.65 171.46 315.58 173.53 314.62 163.48 312.37 150.64 306.44 126.67 308.35 115.39 296.53"/><polygon class="ee" points="164.41 320.03 162.8 313.65 171.46 315.58 164.41 320.03"/><polygon class="ie" points="153.17 326.98 162.8 313.65 164.41 320.03 153.17 326.98"/><polygon class="im" points="151.57 310.64 153.17 326.98 162.8 313.65 151.57 310.64"/><polygon class="gs" points="145.64 316.78 151.57 310.64 153.17 326.98 145.64 316.78"/><polygon class="do" points="139.85 319.67 144 308.6 151.57 310.64 145.64 316.78 139.85 319.67"/><polygon class="ht" points="142.92 329.26 139.85 319.67 145.64 316.78 153.17 326.98 142.92 329.26"/><polygon class="dh" points="153.2 342.19 153.17 326.98 142.92 329.26 153.2 342.19"/><path class="hb" d="M161.49,357.84c-.11-.15,13.03-16.09,13.03-16.09l13.37,2.3,8.03,13.85-34.43-.06Z"/><polygon class="fm" points="153.2 342.19 161.49 357.84 174.52 341.75 153.2 342.19"/><polygon class="ez" points="175.29 377.26 195.95 357.88 161.49 357.84 175.29 377.26"/><polygon class="iy" points="152.83 378.32 175.29 377.26 161.49 357.84 152.83 378.32"/><polygon class="hn" points="136.83 347.82 143.37 356.58 161.49 357.84 153.2 342.19 136.83 347.82"/><polygon class="jm" points="143.1 365.71 136.83 347.82 143.37 356.58 161.49 357.84 143.1 365.71"/><polygon class="cx" points="153.03 377.93 143.1 365.71 161.49 357.84 153.03 377.93"/><polygon class="iu" points="149.03 387.08 137.11 370.29 143.1 365.71 153.03 377.83 149.03 387.08"/><polygon class="ef" points="175.29 377.26 167.43 386.99 149.03 387.08 152.83 378.32 175.29 377.26"/><polygon class="iq" points="130.86 374.93 137.11 370.29 149.03 387.08 130.86 374.93"/><polygon class="ap" points="129.33 358.43 137.11 370.29 130.86 375.18 129.33 358.43"/><polygon class="ar" points="136.83 347.82 129.33 358.43 137.11 370.29 143.1 365.71 136.83 347.82"/><polygon class="ir" points="133.22 345.27 136.83 347.82 129.33 358.43 133.22 345.27"/><polygon class="ek" points="126.19 332.57 133.22 345.27 136.83 347.82 137.25 347.78 133.81 335.9 130.77 333.5 126.19 332.57"/><polygon class="hv" points="142.48 340.05 133.69 336.18 137.25 347.78 142.48 340.05"/><polygon class="i" points="137.25 347.78 153.2 342.19 142.48 340.05 137.25 347.78"/><polygon class="gz" points="144 308.6 128.22 316.78 134.06 321.73 139.85 319.67 144 308.6"/><polygon class="fc" points="142.92 329.26 134.06 321.73 139.85 319.67 142.92 329.26"/><polygon class="hu" points="129.93 330.52 142.92 329.26 128.22 316.78 129.93 330.52"/><polygon class="fw" points="126.19 332.57 129.93 330.52 142.92 329.26 153.2 342.19 142.48 340.05 133.69 336.18 126.19 332.57"/><polygon class="am" points="123.65 311.93 128.22 316.78 120.83 318.11 123.65 311.93"/><polygon class="jb" points="144 308.6 123.65 311.93 128.22 316.78 144 308.6"/><polygon class="hr" points="120.83 318.11 119.8 323.56 126.19 332.57 129.93 330.52 128.22 316.78 120.83 318.11"/><polygon class="es" points="175.29 377.26 204.67 375.16 190.72 384.19 167.43 386.99 175.29 377.26"/><polygon class="cp" points="203.52 382.39 190.72 384.19 204.67 375.16 203.52 382.39"/><polygon class="fl" points="195.92 357.9 204.67 375.16 175.29 377.26 195.92 357.9"/><polygon class="fl" points="218.5 367.31 195.92 357.9 204.59 375.16 218.5 367.31"/><polygon class="gc" points="203.52 382.39 217.99 376.65 218.5 367.31 204.67 375.16 203.52 382.39"/><polygon class="db" points="227.92 374.16 218.5 367.31 217.99 376.65 227.92 374.16"/><polygon class="dw" points="249.89 391.46 227.92 374.16 239.66 409.35 249.89 391.46"/><polygon class="df" points="221.17 342.25 218.5 367.31 195.92 357.9 221.17 342.25"/><polygon class="gv" points="235.75 362 221.17 342.25 218.5 367.31 235.75 362"/><polygon class="bp" points="259.04 354.79 235.75 362 221.17 342.25 253.61 344.57 259.04 354.79"/><polygon class="dl" points="257.36 377.77 259.04 354.79 218.58 367.31 231.21 372.57 257.36 377.77"/><polygon class="ge" points="249.89 391.46 257.36 377.77 231.21 372.57 218.58 367.31 249.89 391.46"/><polygon class="ii" points="221.17 342.25 236.66 328.04 253.61 344.57 221.17 342.25"/><polygon class="ad" points="275.2 300.9 245.4 320.03 236.66 328.04 266.44 322.26 275.2 300.9"/><polygon class="hf" points="263.2 339.44 253.61 344.57 236.66 328.04 263.2 339.44"/><polygon class="v" points="266.44 322.26 263.2 339.44 236.66 328.04 266.44 322.26"/><polygon class="he" points="280.05 330.11 262.99 339.44 266.44 322.26 280.05 330.11"/><polygon class="fg" points="275.2 300.9 280.05 330.11 266.44 322.26 275.2 300.9"/><polygon class="ce" points="290.51 288.46 275.2 300.9 233.13 264.15 290.51 288.46"/><polygon class="j" points="293.9 239.22 233.35 264.55 290.51 288.46 311.28 271.58 293.9 239.22"/><polygon class="gn" points="291.73 203.06 255.73 230.08 270.82 239.3 291.73 203.06"/><polygon class="cy" points="280.19 200.94 291.73 203.06 255.73 230.08 266.9 207.64 280.19 200.94"/><polygon class="gw" points="270.82 239.3 293.9 239.22 291.73 203.06 270.82 239.3"/><polygon class="ec" points="234.03 264.09 293.9 239.22 270.82 239.3 234.03 264.09"/><polygon class="jp" points="239.66 409.35 267.37 435.16 249.89 391.46 239.66 409.35"/><polygon class="jd" points="252.41 442.23 268.6 442.23 267.37 435.16 239.66 409.35 252.41 442.23"/><polygon class="ai" points="257.36 377.77 297.45 434.24 249.89 391.46 257.36 377.77"/><polygon class="au" points="280.05 330.11 259.04 354.79 253.61 344.57 280.05 330.11"/><polygon class="z" points="298.07 325.03 280.05 330.11 275.2 300.9 311.28 271.58 320.1 290.99 298.07 325.03"/><polygon class="fj" points="342.49 304.43 320.1 290.99 298.07 325.03 342.49 304.43"/><polygon class="fa" points="291.73 203.06 290.57 186.1 315.08 190.64 291.73 203.06"/><polygon class="gl" points="339.42 177.77 293.83 170.62 285.03 172.33 290.42 186.1 314.94 190.64 339.42 177.77"/><polygon class="k" points="331.68 161.99 293.83 170.62 339.57 177.77 331.68 161.99"/><polygon class="jc" points="252.6 151.93 285.03 172.33 265.73 172.7 252.6 151.93"/><polygon class="gt" points="291.73 203.06 265.73 172.7 285.03 172.33 290.57 186.1 291.73 203.06"/><polygon class="em" points="252.85 185.21 280.19 200.94 291.73 203.06 276.64 185.44 252.85 185.21"/><polygon class="ac" points="265.73 172.7 252.85 185.21 276.64 185.44 265.73 172.7"/><polygon class="ey" points="245.47 179.91 252.85 185.21 265.73 172.7 245.47 179.91"/><polygon class="jo" points="252.6 151.93 245.47 179.91 265.73 172.7 252.6 151.93"/><path class="ix" d="M236.34,160.76l16.26-8.83s-6.76,28.03-7.13,27.98-9.13-19.16-9.13-19.16Z"/><polygon class="ep" points="212.23 154.37 236.34 160.76 244.94 179.91 212.23 154.37"/><polygon class="dk" points="230.83 146.22 212.23 154.37 252.6 151.93 230.83 146.22"/><polygon class="ij" points="236.34 160.76 252.6 151.93 212.23 154.37 236.34 160.76"/><polygon class="r" points="205.11 139.18 212.23 154.37 230.83 146.22 205.11 139.18"/><polygon class="ji" points="192.89 145.42 205.11 139.18 212.23 154.37 192.89 145.42"/><polygon class="s" points="217.95 169.91 212.23 154.37 245.47 179.91 242.89 182.12 217.95 169.91"/><polygon class="gf" points="200.17 162.78 217.95 169.91 212.23 154.37 200.17 162.78"/><polygon class="aa" points="182.81 150.61 212.23 154.37 200.17 162.78 189.64 161.9 182.81 150.61"/><polygon class="dv" points="192.89 145.42 182.81 150.61 212.23 154.37 192.89 145.42"/><polygon class="gm" points="180.45 163.84 189.64 161.9 182.81 150.61 180.45 163.84"/><polygon class="bf" points="168.58 157.58 182.81 150.61 179.41 169.62 168.58 157.58"/><polygon class="dr" points="153.7 165.2 168.58 157.58 179.41 169.62 176.11 181.01 170.51 180.59 153.7 165.2"/><polygon class="bk" points="146.79 180.77 158.13 203.35 147.73 201.01 146.79 180.77"/><polygon class="iw" points="170.34 190.46 158.13 203.35 146.79 180.77 170.34 190.46"/><polygon class="jl" points="153.7 165.2 170.34 190.46 170.51 180.59 153.7 165.2"/><polygon class="jl" points="146.79 180.77 164.82 181.91 153.7 165.2 146.79 180.77"/><polygon class="jl" points="170.34 190.46 164.82 181.91 146.79 180.77 170.34 190.46"/><polygon class="jn" points="176.11 181.01 170.34 190.46 170.51 180.59 176.11 181.01"/><polygon class="iv" points="179.41 169.62 189.79 163.4 205.41 167.03 227.87 178.57 239.09 182.99 241.9 181.64 217.95 169.91 200.17 162.78 189.64 161.9 180.45 163.84 179.41 169.62"/><polygon class="af" points="187.25 170.88 189.79 163.4 179.41 169.62 187.25 170.88"/><polygon class="m" points="201.42 173.16 187.25 170.88 189.79 163.4 205.41 167.03 201.42 173.16"/><polygon class="fs" points="239.09 182.99 210.5 169.73 213.39 175.97 239.09 182.99"/><polygon class="fr" points="201.42 173.16 213.39 175.97 210.5 169.73 205.41 167.03 201.42 173.16"/><polygon class="hl" points="155.64 217.65 161.01 216.89 147.73 201.01 155.64 217.65"/><polygon class="n" points="170.34 190.46 171.12 220.98 161.01 216.89 147.73 201.01 158.13 203.35 170.34 190.46"/><polygon class="bt" points="155.64 217.65 161.01 216.89 171.12 220.98 168.15 232.22 155.64 217.65"/><polygon class="jg" points="197.16 210.2 171.06 221.02 168.15 232.22 184.32 230.13 197.16 210.2"/><polygon class="ik" points="204.23 211.17 197.16 210.2 184.32 230.13 204.23 211.17"/><polygon class="eb" points="226.26 203.09 204.23 211.17 184.32 230.13 217.12 226.38 226.26 203.09"/><polygon class="ba" points="242.09 197.15 231.45 196.76 226.26 203.09 217.12 226.38 242.09 197.15"/><polygon class="di" points="242.05 214.34 242.09 197.15 217.12 226.38 242.05 214.34"/><polygon class="o" points="266.9 207.64 242.05 214.34 217.49 226.19 266.9 207.64"/><polygon class="ia" points="252.85 185.21 260.03 200.51 280.19 200.94 252.85 185.21"/><polygon class="o" points="266.9 207.64 260.03 200.51 280.19 200.94 266.9 207.64"/><polygon class="o" points="242.05 214.34 266.9 207.64 260.03 200.51 242.05 214.34"/><polygon class="fn" points="252.85 185.21 242.09 197.15 242.05 214.34 260.03 200.51 252.85 185.21"/><polygon class="bl" points="245.47 179.91 243.14 185.71 242.09 197.15 252.85 185.21 245.47 179.91"/><polygon class="ey" points="220.33 191.97 231.45 196.76 245.47 179.91 220.33 191.97"/><polygon class="gk" points="242.09 197.15 231.45 196.76 245.47 179.91 242.09 197.15"/><polygon class="y" points="204.24 202.77 231.45 196.76 220.33 191.97 204.24 202.77"/><polygon class="bn" points="220.33 191.97 214.22 191.89 222 184.14 239.17 182.95 220.33 191.97"/><polygon class="cb" points="204.24 202.77 214.22 191.89 220.33 191.97 204.24 202.77"/><polygon class="jk" points="204.35 190 195.52 192.73 204.24 202.77 214.22 191.89 204.35 190"/><polygon class="cr" points="222 184.14 216.75 184.51 204.35 190 214.22 191.89 222 184.14"/><polygon class="du" points="192.72 203.02 195.52 192.73 204.24 202.77 192.72 203.02"/><polygon class="ej" points="186 192.66 195.52 192.73 192.72 203.02 186 192.66"/><polygon class="ck" points="170.34 190.46 186 192.66 192.72 203.02 170.34 190.46"/><polygon class="x" points="187.6 214.38 170.34 190.46 171.06 221.02 187.6 214.38"/><polygon class="il" points="197.16 210.2 187.6 214.38 170.34 190.46 192.72 203.02 197.16 210.2"/><polygon class="eu" points="204.24 202.77 197.16 210.2 192.72 203.02 204.24 202.77"/><polygon class="dp" points="204.23 211.17 204.24 202.77 197.16 210.2 204.23 211.17"/><polygon class="cg" points="220.29 205.28 204.24 202.77 204.23 211.17 220.29 205.28"/><polygon class="q" points="231.45 196.76 204.24 202.77 220.29 205.28 226.26 203.09 231.45 196.76"/><polygon class="da" points="170.34 190.46 175.47 187.35 179.35 179.43 185.17 172.78 203.77 175.21 204.67 174.78 206.73 174.01 179.41 169.62 176.08 181.12 170.34 190.46"/><polygon class="cr" points="239.17 182.95 206.24 174.03 203.77 175.21 213.04 179.35 216.75 184.51 239.17 182.95"/><polygon class="bo" points="184.94 187.75 175.47 187.35 170.34 190.46 186 192.66 188.09 189.46 185.05 189.38 184.94 187.75"/><polygon class="bi" points="196.38 188.07 188.09 189.46 186 192.66 195.52 192.73 196.38 188.07"/><polygon class="cs" points="205.13 185.67 196.38 188.07 195.52 192.73 204.35 190 210.68 187.19 205.13 185.67"/><polygon class="fx" points="179.35 179.43 184.49 181.3 185.05 189.38 175.47 187.35 179.35 179.43"/><polygon class="cz" points="185.65 176.75 186.15 182.94 188.09 189.46 185.05 189.38 184.49 181.3 179.35 179.43 185.17 172.78 185.65 176.75"/><polygon class="cr" points="195.86 180.09 197.05 179.6 204.62 181.18 204.67 180.68 197.16 176.23 196.25 177.18 195.86 180.09"/><polygon class="ba" points="196.38 188.07 197.63 183.89 197.05 179.6 204.62 181.18 205.49 183.99 205.13 185.67 196.38 188.07"/><polygon class="ih" points="190.17 189.07 188.39 188.02 186.81 178.71 187.4 177.48 188.76 178.71 190.17 183.98 191.51 185.5 193.31 184 195.13 181.3 195.86 180.09 197.05 179.6 197.63 183.89 196.38 188.07 190.17 189.07"/><polygon class="cc" points="189.2 173.2 189.38 177.57 196.04 178.97 196.45 175.49 198.62 174.54 189.2 173.2"/><polygon class="hq" points="204.62 181.18 213.04 179.35 203.77 175.21 198.62 174.54 196.45 175.49 196.25 177.18 197.16 176.23 204.62 181.18"/><polygon class="ed" points="196.04 178.97 189.38 177.57 189.34 176.53 185.65 176.75 185.91 180.48 186.99 179.69 186.65 177.83 187.97 177.22 188.76 178.71 190.17 183.98 191.51 185.5 193.31 184 195.86 180.09 196.04 178.97"/><polygon class="dq" points="185.17 172.78 189.2 173.28 189.34 176.53 185.65 176.75 185.17 172.78"/><polygon class="ba" points="186.81 178.71 185.55 176.75 186.15 182.94 188.09 189.46 190.17 189.07 188.39 188.02 186.81 178.71"/><polygon class="hs" points="205.36 184.59 215.67 183.51 216.75 184.51 210.68 187.19 205.13 185.67 205.13 185.67 205.36 184.59"/><polygon class="hy" points="213.04 179.35 204.62 181.18 205.36 184.59 216.75 184.51 213.04 179.35"/><polygon class="hc" points="257.36 377.77 285.19 355.75 259.04 354.79 257.36 377.77"/><polygon class="gq" points="280.05 330.11 285.19 355.75 259.04 354.79 280.05 330.11"/><path class="ig" d="M257.36,377.77s32.09,19.22,31.8,18.8-3.96-40.83-3.96-40.83l-27.84,22.03Z"/><path class="dj" d="M291.95,347.05l-6.76,8.7,3.96,40.83s20.95-6.62,20.95-7.49-18.15-42.04-18.15-42.04Z"/><polygon class="bx" points="280.05 330.11 291.95 347.05 285.19 355.75 280.05 330.11"/><polygon class="de" points="302.77 339.69 333.6 363.84 335.83 355.04 302.77 339.69"/><polygon class="ca" points="307.43 359.33 314.65 382.5 325.1 389.97 307.43 359.33"/><polygon class="bs" points="311.28 271.58 336.29 242.96 364.89 228.83 311.28 271.58"/><polygon class="bu" points="324.33 231.58 363.23 208.45 336.55 227.11 324.33 231.58"/><path class="jj" d="M295.08,167.3c.9.11,38.27-49.32,38.27-49.32l-8.24.46-30.02,48.86Z"/><polygon class="bu" points="349.58 180.61 334.39 191.08 347.45 188.39 349.58 180.61"/><polygon class="o" points="382.51 111.17 364.88 118.94 366.12 119.63 382.03 112.35 382.51 111.17"/><polygon class="o" points="152.02 241.08 155.64 217.65 159.44 250.42 152.02 241.08"/><polygon class="o" points="178.95 326.56 171.46 315.58 173.53 314.62 178.95 326.56"/><polygon class="ed" points="187.97 177.22 187.4 177.48 188.77 178.75 187.97 177.22"/><polygon class="ba" points="185.55 176.75 187.4 177.48 186.81 178.71 185.55 176.75"/><polygon class="je" points="118.03 176.32 117.09 173.44 132.38 176.5 133.21 177.89 118.03 176.32"/></g><polygon class="bg" points="341.99 336.3 348.56 334.15 347.62 337.58 341.99 336.3"/><polygon class="bg" points="361.74 268.36 355.86 272.18 370.68 267.35 361.74 268.36"/></svg>