<svg xmlns="http://www.w3.org/2000/svg" version="1.1" xmlns:xlink="http://www.w3.org/1999/xlink" xmlns:svgjs="http://svgjs.dev/svgjs" width="1500" height="1500" viewBox="0 0 1500 1500"><rect width="1500" height="1500" fill="#2f2a29"></rect><g transform="matrix(0.6666666666666666,0,0,0.6666666666666666,248.6177250673855,280.8254276364453)"><svg viewBox="0 0 265 248" data-background-color="#2f2a29" preserveAspectRatio="xMidYMid meet" height="1403" width="1500" xmlns="http://www.w3.org/2000/svg" xmlns:xlink="http://www.w3.org/1999/xlink"><g id="tight-bounds" transform="matrix(1,0,0,1,0.3663028571428413,0.40002634420793015)"><svg viewBox="0 0 264.2673942857143 247.2" height="247.2" width="264.2673942857143"><g><svg viewBox="0 0 264.2673942857143 247.2" height="247.2" width="264.2673942857143"><g><svg viewBox="0 0 264.2673942857143 247.2" height="247.2" width="264.2673942857143"><g id="textblocktransform"><svg viewBox="0 0 264.2673942857143 247.2" height="247.2" width="264.2673942857143" id="textblock"><g><svg viewBox="0 0 264.2673942857143 247.2" height="247.2" width="264.2673942857143"><path d="M263.649 53.02C262.406 27.36 258.866 20.227 258.866 20.227 247.995-6.202 234.428-0.506 222.24 3.292 200.722 3.446 179.291 9.091 157.823 12.119 112.762 12.581 67.316 4.986 22.478 23.717 18.267 29.464-4.369 24.846 0.749 56.304 2.091 69.39 6.986 83.913 6.837 95.922 7.508 98.026 8.439 93.202 8.837 96.23 10.228 104.39 12.502 100.541 14.366 105.365 11.769 118.246 13.633 128.971 15.409 140.21 12.278 143.135 8.266 141.749 6.464 151.449 6.278 158.479 5.271 157.145 4.166 156.837 3.358 156.632 1.731 157.402 2.004 159.608 2.936 167.152-1.065 171.514 1.445 178.904-0.282 186.91 2.638 193.838 2.24 202.511 2.19 204.255 2.464 205.744 2.898 206.154 4.824 208.361 2.016 212.672 2.315 217.342 22.068 249.262 43.499 227.195 63.738 241.872 68.993 231.608 65.042 245.516 67.142 243.36 68.782 240.846 69.974 251.263 71.826 245.362 72.111 243.668 71.676 239.665 72.695 240.435 73.229 240.846 73.702 240.743 73.776 238.382 73.888 234.841 72.906 237.048 72.646 235.201 75.466 225.861 74.77 248.081 77.416 247.158 77.292 244.438 76.522 240.538 78.1 241.051 79.665 237.151 79.715 233.918 81.106 242.693 81.156 244.592 81.404 245.926 81.802 246.85 86.15 237.305 90.474 250.237 95.033 245.926 97.829 241.205 100.512 248.492 103.345 246.696 104.339 245.259 105.345 242.693 106.302 247.004 118.017 247.928 130.503 244.079 141.61 247.158 171.29 241.41 203.008 249.518 234.304 241.923 241.683 238.998 249.349 234.841 256.542 231.506 256.542 231.506 262.369 222.371 262.369 181.316S263.611 145.393 263.798 112.703C263.984 80.013 264.854 78.679 263.611 53.02Z" opacity="1" fill="#e84613" data-fill-palette-color="tertiary"></path><g transform="matrix(1,0,0,1,55.76832000000002,26.230666666666668)"><svg width="152.73075428571428" viewBox="0.4 -35 27.450000000000003 35" height="194.73866666666666" data-palette-color="#2f2a29"><path d="M23-35L27.85-35 16.75 0 11.5 0 0.4-35 5.3-35 14.15-5.85 23-35Z" opacity="1" transform="matrix(1,0,0,1,0,0)" fill="#2f2a29" class="wordmark-text-0" data-fill-palette-color="quaternary" id="text-0"></path></svg></g></svg></g></svg></g></svg></g><g></g></svg></g><defs></defs></svg><rect width="264.2673942857143" height="247.2" fill="none" stroke="none" visibility="hidden"></rect></g></svg></g></svg>